<?xml version="1.0" encoding="utf-8"?>
<!-- Generator: Adobe Illustrator 23.0.0, SVG Export Plug-In . SVG Version: 6.00 Build 0)  -->
<svg version="1.1" id="Слой_1" xmlns="http://www.w3.org/2000/svg" xmlns:xlink="http://www.w3.org/1999/xlink" x="0px" y="0px"
	 viewBox="0 0 512 512" style="enable-background:new 0 0 512 512;" xml:space="preserve">
<style type="text/css">
	.st0{fill:#F5F5F5;}
</style>
<path class="st0" d="M258.5,104.1c-1.5-1.2-3.5-1.2-5,0l-156,124.8c-0.9,0.8-1.5,1.9-1.5,3.1v230c0,1.1,0.9,2,2,2h108
	c1.1,0,2-0.9,2-2V322c0-1.1,0.9-2,2-2h92c1.1,0,2,0.9,2,2v140c0,1.1,0.9,2,2,2h108c1.1,0,2-0.9,2-2V232c0-1.2-0.6-2.4-1.5-3.1
	C414.5,228.9,258.5,104.1,258.5,104.1z"/>
<path class="st0" d="M458.7,204.2l-189-151.4C265.9,49.7,261,48,256,48s-9.9,1.7-13.7,4.8L160,119.7V77.5c0-1.1-0.9-2-2-2H98
	c-1.1,0-2,0.9-2,2v92.2l-42.7,35.1c-3.1,2.5-5.1,6.2-5.3,10.2s1.3,7.9,4.1,10.7c2.6,2.6,6.1,4.1,9.9,4.1c3.2,0,6.3-1.1,8.8-3.1
	l183.9-148c0.5-0.4,0.9-0.4,1.3-0.4c0.4,0,0.8,0.1,1.3,0.4l183.9,147.4c2.5,2,5.6,3.1,8.8,3.1c3.7,0,7.2-1.4,9.9-4.1
	c2.9-2.8,4.4-6.7,4.2-10.7C463.8,210.4,461.9,206.7,458.7,204.2L458.7,204.2z"/>
</svg>
